<svg width="500" height="500" viewBox="0 0 500 500" fill="none" xmlns="http://www.w3.org/2000/svg">
<rect width="500" height="500" fill="black"/>
<g clip-path="url(#clip0_10_3)">
<path d="M114.003 254.4C114.003 256.418 113.486 258.199 112.452 259.742C111.435 261.284 109.958 262.49 108.022 263.36C106.102 264.23 103.779 264.665 101.055 264.665C98.2821 264.665 95.8615 264.254 93.7938 263.434C91.7262 262.613 89.9785 261.506 88.5508 260.111L91.6769 256.615C92.8749 257.731 94.2369 258.601 95.7631 259.225C97.2892 259.848 99.0451 260.16 101.031 260.16C102.951 260.16 104.6 259.709 105.978 258.806C107.373 257.887 108.071 256.509 108.071 254.671C108.071 253.686 107.866 252.849 107.455 252.16C107.045 251.454 106.331 250.831 105.314 250.289C104.313 249.731 102.91 249.182 101.105 248.64C97.5108 247.573 94.7867 246.285 92.9323 244.775C91.0779 243.266 90.1508 241.182 90.1508 238.523C90.1508 236.685 90.6513 235.077 91.6523 233.698C92.6697 232.32 94.0564 231.253 95.8123 230.498C97.5846 229.727 99.5867 229.342 101.818 229.342C104.28 229.342 106.43 229.703 108.268 230.425C110.106 231.13 111.747 232.131 113.191 233.428L110.188 236.825C108.99 235.791 107.702 235.036 106.323 234.56C104.961 234.068 103.574 233.822 102.163 233.822C100.424 233.822 98.9631 234.191 97.7815 234.929C96.6 235.651 96.0092 236.743 96.0092 238.203C96.0092 239.089 96.2472 239.844 96.7231 240.468C97.2154 241.075 98.0359 241.649 99.1846 242.191C100.35 242.716 101.942 243.282 103.96 243.889C105.864 244.447 107.57 245.136 109.08 245.957C110.606 246.777 111.804 247.861 112.674 249.206C113.56 250.535 114.003 252.267 114.003 254.4ZM125.491 252.775C125.655 255.45 126.402 257.387 127.731 258.585C129.077 259.783 130.693 260.382 132.58 260.382C133.844 260.382 135.017 260.185 136.1 259.791C137.2 259.397 138.299 258.839 139.399 258.117L141.787 261.415C140.572 262.4 139.153 263.188 137.528 263.778C135.904 264.369 134.164 264.665 132.31 264.665C129.602 264.665 127.313 264.09 125.442 262.942C123.588 261.793 122.176 260.193 121.208 258.142C120.256 256.09 119.78 253.719 119.78 251.028C119.78 248.418 120.256 246.088 121.208 244.037C122.16 241.969 123.522 240.336 125.294 239.138C127.067 237.924 129.184 237.317 131.645 237.317C135.091 237.317 137.815 238.474 139.817 240.788C141.836 243.102 142.845 246.277 142.845 250.314C142.845 250.757 142.829 251.2 142.796 251.643C142.779 252.07 142.755 252.447 142.722 252.775H125.491ZM131.694 241.403C129.971 241.403 128.544 242.018 127.411 243.249C126.279 244.48 125.631 246.4 125.467 249.009H137.504C137.454 246.564 136.929 244.685 135.928 243.372C134.944 242.059 133.532 241.403 131.694 241.403ZM161.866 227.569V256.911C161.866 258.109 162.227 258.962 162.949 259.471C163.687 259.963 164.639 260.209 165.804 260.209C166.542 260.209 167.248 260.135 167.921 259.988C168.61 259.824 169.275 259.61 169.915 259.348L171.318 263.188C170.547 263.582 169.595 263.926 168.462 264.222C167.347 264.517 166.067 264.665 164.622 264.665C162.013 264.665 159.978 263.926 158.518 262.449C157.074 260.972 156.352 258.962 156.352 256.418V231.631H148.499V227.569H161.866ZM190.338 225.28C191.421 225.28 192.291 225.608 192.948 226.265C193.62 226.921 193.957 227.742 193.957 228.726C193.957 229.711 193.62 230.539 192.948 231.212C192.291 231.885 191.421 232.222 190.338 232.222C189.288 232.222 188.427 231.885 187.754 231.212C187.081 230.539 186.745 229.711 186.745 228.726C186.745 227.742 187.081 226.921 187.754 226.265C188.427 225.608 189.288 225.28 190.338 225.28ZM194.178 238.006V259.963H201.243V264H180.886V259.963H188.665V242.043H181.132V238.006H194.178ZM227.427 237.317C228.411 237.317 229.297 237.53 230.085 237.957C230.873 238.384 231.488 239.138 231.931 240.222C232.391 241.288 232.62 242.773 232.62 244.677V264H227.722V245.44C227.722 244.078 227.623 243.102 227.427 242.511C227.246 241.92 226.762 241.625 225.974 241.625C225.351 241.625 224.711 241.822 224.054 242.215C223.414 242.593 222.774 243.249 222.134 244.185V264H217.679V245.44C217.679 244.078 217.58 243.102 217.383 242.511C217.203 241.92 216.719 241.625 215.931 241.625C215.291 241.625 214.651 241.822 214.011 242.215C213.371 242.593 212.731 243.249 212.091 244.185V264H207.168V238.006H211.328L211.697 240.812C212.436 239.778 213.232 238.942 214.085 238.302C214.955 237.645 216.013 237.317 217.26 237.317C218.245 237.317 219.139 237.563 219.943 238.055C220.748 238.531 221.338 239.393 221.716 240.64C222.454 239.655 223.275 238.859 224.177 238.252C225.08 237.629 226.163 237.317 227.427 237.317ZM258.902 257.625C258.902 258.658 259.058 259.405 259.37 259.865C259.682 260.324 260.182 260.669 260.872 260.898L259.641 264.64C258.361 264.492 257.253 264.139 256.318 263.582C255.399 263.024 254.71 262.178 254.25 261.046C253.298 262.261 252.092 263.171 250.632 263.778C249.171 264.369 247.612 264.665 245.955 264.665C243.313 264.665 241.229 263.926 239.702 262.449C238.176 260.956 237.413 259.003 237.413 256.591C237.413 253.85 238.48 251.742 240.613 250.265C242.747 248.788 245.799 248.049 249.77 248.049H253.487V246.351C253.487 244.661 252.978 243.454 251.961 242.732C250.943 241.994 249.524 241.625 247.702 241.625C246.849 241.625 245.815 241.739 244.601 241.969C243.387 242.183 242.115 242.519 240.785 242.978L239.432 239.089C241.056 238.482 242.648 238.039 244.207 237.76C245.766 237.465 247.21 237.317 248.539 237.317C252.018 237.317 254.611 238.088 256.318 239.631C258.041 241.173 258.902 243.307 258.902 246.031V257.625ZM247.629 260.603C248.744 260.603 249.836 260.308 250.902 259.717C251.969 259.126 252.831 258.297 253.487 257.231V251.495H250.435C247.842 251.495 245.988 251.93 244.872 252.8C243.756 253.653 243.198 254.835 243.198 256.345C243.198 259.184 244.675 260.603 247.629 260.603ZM282.304 225.28C283.371 225.28 284.241 225.608 284.914 226.265C285.586 226.921 285.923 227.742 285.923 228.726C285.923 229.711 285.586 230.539 284.914 231.212C284.241 231.885 283.371 232.222 282.304 232.222C281.238 232.222 280.368 231.885 279.695 231.212C279.039 230.539 278.711 229.711 278.711 228.726C278.711 227.742 279.039 226.921 279.695 226.265C280.368 225.608 281.238 225.28 282.304 225.28ZM286.612 238.006V258.535C286.612 261.768 285.939 264.451 284.594 266.585C283.248 268.718 281.287 270.425 278.711 271.705C276.134 272.985 273 273.953 269.307 274.609L268.421 270.375C270.998 269.883 273.238 269.202 275.141 268.332C277.045 267.463 278.514 266.273 279.547 264.763C280.581 263.253 281.098 261.301 281.098 258.905V242.043H270.834V238.006H286.612ZM303.713 259.889C303.713 258.576 304.164 257.461 305.066 256.542C305.985 255.606 307.118 255.138 308.463 255.138C309.809 255.138 310.941 255.606 311.86 256.542C312.779 257.461 313.239 258.576 313.239 259.889C313.239 261.202 312.779 262.326 311.86 263.262C310.941 264.197 309.809 264.665 308.463 264.665C307.118 264.665 305.985 264.197 305.066 263.262C304.164 262.326 303.713 261.202 303.713 259.889ZM342.893 226.954L348.407 227.569V264H343.558L343.164 260.8C342.278 262.031 341.219 262.983 339.988 263.655C338.758 264.328 337.379 264.665 335.853 264.665C333.621 264.665 331.783 264.098 330.339 262.966C328.912 261.817 327.845 260.217 327.139 258.166C326.434 256.115 326.081 253.727 326.081 251.003C326.081 248.361 326.491 246.014 327.312 243.963C328.132 241.895 329.305 240.271 330.832 239.089C332.358 237.908 334.196 237.317 336.345 237.317C339.02 237.317 341.203 238.261 342.893 240.148V226.954ZM337.798 241.551C335.943 241.551 334.499 242.322 333.465 243.865C332.432 245.391 331.915 247.77 331.915 251.003C331.915 254.318 332.382 256.722 333.318 258.215C334.269 259.692 335.599 260.431 337.305 260.431C338.553 260.431 339.636 260.07 340.555 259.348C341.474 258.626 342.253 257.756 342.893 256.738V244.431C342.253 243.512 341.506 242.806 340.653 242.314C339.8 241.805 338.848 241.551 337.798 241.551ZM361.741 252.775C361.905 255.45 362.652 257.387 363.981 258.585C365.327 259.783 366.943 260.382 368.83 260.382C370.094 260.382 371.267 260.185 372.35 259.791C373.45 259.397 374.549 258.839 375.649 258.117L378.037 261.415C376.822 262.4 375.403 263.188 373.778 263.778C372.154 264.369 370.414 264.665 368.56 264.665C365.852 264.665 363.563 264.09 361.692 262.942C359.838 261.793 358.426 260.193 357.458 258.142C356.506 256.09 356.03 253.719 356.03 251.028C356.03 248.418 356.506 246.088 357.458 244.037C358.41 241.969 359.772 240.336 361.544 239.138C363.317 237.924 365.434 237.317 367.895 237.317C371.341 237.317 374.065 238.474 376.067 240.788C378.086 243.102 379.095 246.277 379.095 250.314C379.095 250.757 379.079 251.2 379.046 251.643C379.029 252.07 379.005 252.447 378.972 252.775H361.741ZM367.944 241.403C366.221 241.403 364.794 242.018 363.661 243.249C362.529 244.48 361.881 246.4 361.717 249.009H373.754C373.704 246.564 373.179 244.685 372.178 243.372C371.194 242.059 369.782 241.403 367.944 241.403ZM409.463 238.006L400.306 264H393.857L384.7 238.006H390.608L397.205 259.422L403.826 238.006H409.463Z" fill="white"/>
</g>
<defs>
<clipPath id="clip0_10_3">
<rect width="325" height="50" fill="white" transform="translate(87 225)"/>
</clipPath>
</defs>
</svg>
